G04 #@! TF.GenerationSoftware,KiCad,Pcbnew,5.1.6*
G04 #@! TF.CreationDate,2020-07-26T18:09:44+03:00*
G04 #@! TF.ProjectId,kicad-skw92b-mt7688a-adapter,6b696361-642d-4736-9b77-3932622d6d74,rev?*
G04 #@! TF.SameCoordinates,Original*
G04 #@! TF.FileFunction,Legend,Top*
G04 #@! TF.FilePolarity,Positive*
%FSLAX46Y46*%
G04 Gerber Fmt 4.6, Leading zero omitted, Abs format (unit mm)*
G04 Created by KiCad (PCBNEW 5.1.6) date 2020-07-26 18:09:44*
%MOMM*%
%LPD*%
G01*
G04 APERTURE LIST*
%ADD10C,0.150000*%
%ADD11C,0.120000*%
%ADD12C,0.300000*%
G04 APERTURE END LIST*
D10*
X137022619Y-136809523D02*
X137308333Y-136904761D01*
X137784523Y-136904761D01*
X137975000Y-136809523D01*
X138070238Y-136714285D01*
X138165476Y-136523809D01*
X138165476Y-136333333D01*
X138070238Y-136142857D01*
X137975000Y-136047619D01*
X137784523Y-135952380D01*
X137403571Y-135857142D01*
X137213095Y-135761904D01*
X137117857Y-135666666D01*
X137022619Y-135476190D01*
X137022619Y-135285714D01*
X137117857Y-135095238D01*
X137213095Y-135000000D01*
X137403571Y-134904761D01*
X137879761Y-134904761D01*
X138165476Y-135000000D01*
X139022619Y-136904761D02*
X139022619Y-134904761D01*
X140165476Y-136904761D02*
X139308333Y-135761904D01*
X140165476Y-134904761D02*
X139022619Y-136047619D01*
X140832142Y-134904761D02*
X141308333Y-136904761D01*
X141689285Y-135476190D01*
X142070238Y-136904761D01*
X142546428Y-134904761D01*
X143403571Y-136904761D02*
X143784523Y-136904761D01*
X143975000Y-136809523D01*
X144070238Y-136714285D01*
X144260714Y-136428571D01*
X144355952Y-136047619D01*
X144355952Y-135285714D01*
X144260714Y-135095238D01*
X144165476Y-135000000D01*
X143975000Y-134904761D01*
X143594047Y-134904761D01*
X143403571Y-135000000D01*
X143308333Y-135095238D01*
X143213095Y-135285714D01*
X143213095Y-135761904D01*
X143308333Y-135952380D01*
X143403571Y-136047619D01*
X143594047Y-136142857D01*
X143975000Y-136142857D01*
X144165476Y-136047619D01*
X144260714Y-135952380D01*
X144355952Y-135761904D01*
X145117857Y-135095238D02*
X145213095Y-135000000D01*
X145403571Y-134904761D01*
X145879761Y-134904761D01*
X146070238Y-135000000D01*
X146165476Y-135095238D01*
X146260714Y-135285714D01*
X146260714Y-135476190D01*
X146165476Y-135761904D01*
X145022619Y-136904761D01*
X146260714Y-136904761D01*
X147784523Y-135857142D02*
X148070238Y-135952380D01*
X148165476Y-136047619D01*
X148260714Y-136238095D01*
X148260714Y-136523809D01*
X148165476Y-136714285D01*
X148070238Y-136809523D01*
X147879761Y-136904761D01*
X147117857Y-136904761D01*
X147117857Y-134904761D01*
X147784523Y-134904761D01*
X147975000Y-135000000D01*
X148070238Y-135095238D01*
X148165476Y-135285714D01*
X148165476Y-135476190D01*
X148070238Y-135666666D01*
X147975000Y-135761904D01*
X147784523Y-135857142D01*
X147117857Y-135857142D01*
X150641666Y-136904761D02*
X150641666Y-134904761D01*
X151308333Y-136333333D01*
X151975000Y-134904761D01*
X151975000Y-136904761D01*
X152641666Y-134904761D02*
X153784523Y-134904761D01*
X153213095Y-136904761D02*
X153213095Y-134904761D01*
X154260714Y-134904761D02*
X155594047Y-134904761D01*
X154736904Y-136904761D01*
X157213095Y-134904761D02*
X156832142Y-134904761D01*
X156641666Y-135000000D01*
X156546428Y-135095238D01*
X156355952Y-135380952D01*
X156260714Y-135761904D01*
X156260714Y-136523809D01*
X156355952Y-136714285D01*
X156451190Y-136809523D01*
X156641666Y-136904761D01*
X157022619Y-136904761D01*
X157213095Y-136809523D01*
X157308333Y-136714285D01*
X157403571Y-136523809D01*
X157403571Y-136047619D01*
X157308333Y-135857142D01*
X157213095Y-135761904D01*
X157022619Y-135666666D01*
X156641666Y-135666666D01*
X156451190Y-135761904D01*
X156355952Y-135857142D01*
X156260714Y-136047619D01*
X158546428Y-135761904D02*
X158355952Y-135666666D01*
X158260714Y-135571428D01*
X158165476Y-135380952D01*
X158165476Y-135285714D01*
X158260714Y-135095238D01*
X158355952Y-135000000D01*
X158546428Y-134904761D01*
X158927380Y-134904761D01*
X159117857Y-135000000D01*
X159213095Y-135095238D01*
X159308333Y-135285714D01*
X159308333Y-135380952D01*
X159213095Y-135571428D01*
X159117857Y-135666666D01*
X158927380Y-135761904D01*
X158546428Y-135761904D01*
X158355952Y-135857142D01*
X158260714Y-135952380D01*
X158165476Y-136142857D01*
X158165476Y-136523809D01*
X158260714Y-136714285D01*
X158355952Y-136809523D01*
X158546428Y-136904761D01*
X158927380Y-136904761D01*
X159117857Y-136809523D01*
X159213095Y-136714285D01*
X159308333Y-136523809D01*
X159308333Y-136142857D01*
X159213095Y-135952380D01*
X159117857Y-135857142D01*
X158927380Y-135761904D01*
X160451190Y-135761904D02*
X160260714Y-135666666D01*
X160165476Y-135571428D01*
X160070238Y-135380952D01*
X160070238Y-135285714D01*
X160165476Y-135095238D01*
X160260714Y-135000000D01*
X160451190Y-134904761D01*
X160832142Y-134904761D01*
X161022619Y-135000000D01*
X161117857Y-135095238D01*
X161213095Y-135285714D01*
X161213095Y-135380952D01*
X161117857Y-135571428D01*
X161022619Y-135666666D01*
X160832142Y-135761904D01*
X160451190Y-135761904D01*
X160260714Y-135857142D01*
X160165476Y-135952380D01*
X160070238Y-136142857D01*
X160070238Y-136523809D01*
X160165476Y-136714285D01*
X160260714Y-136809523D01*
X160451190Y-136904761D01*
X160832142Y-136904761D01*
X161022619Y-136809523D01*
X161117857Y-136714285D01*
X161213095Y-136523809D01*
X161213095Y-136142857D01*
X161117857Y-135952380D01*
X161022619Y-135857142D01*
X160832142Y-135761904D01*
X161974999Y-136333333D02*
X162927380Y-136333333D01*
X161784523Y-136904761D02*
X162451190Y-134904761D01*
X163117857Y-136904761D01*
D11*
X137500000Y-80600000D02*
X137500000Y-80500000D01*
D12*
X137500000Y-121000000D02*
X137500000Y-80600000D01*
X162500000Y-121100000D02*
X137500000Y-121000000D01*
X162500000Y-80500000D02*
X162500000Y-121100000D01*
X137500000Y-80500000D02*
X162500000Y-80500000D01*
D10*
X149188095Y-77952380D02*
X149188095Y-78761904D01*
X149235714Y-78857142D01*
X149283333Y-78904761D01*
X149378571Y-78952380D01*
X149569047Y-78952380D01*
X149664285Y-78904761D01*
X149711904Y-78857142D01*
X149759523Y-78761904D01*
X149759523Y-77952380D01*
X150759523Y-78952380D02*
X150188095Y-78952380D01*
X150473809Y-78952380D02*
X150473809Y-77952380D01*
X150378571Y-78095238D01*
X150283333Y-78190476D01*
X150188095Y-78238095D01*
M02*
