G04 #@! TF.GenerationSoftware,KiCad,Pcbnew,5.1.6*
G04 #@! TF.CreationDate,2020-07-26T18:09:44+03:00*
G04 #@! TF.ProjectId,kicad-skw92b-mt7688a-adapter,6b696361-642d-4736-9b77-3932622d6d74,rev?*
G04 #@! TF.SameCoordinates,Original*
G04 #@! TF.FileFunction,Copper,L2,Bot*
G04 #@! TF.FilePolarity,Positive*
%FSLAX46Y46*%
G04 Gerber Fmt 4.6, Leading zero omitted, Abs format (unit mm)*
G04 Created by KiCad (PCBNEW 5.1.6) date 2020-07-26 18:09:44*
%MOMM*%
%LPD*%
G01*
G04 APERTURE LIST*
G04 #@! TA.AperFunction,ComponentPad*
%ADD10O,1.700000X1.700000*%
G04 #@! TD*
G04 #@! TA.AperFunction,ComponentPad*
%ADD11R,1.700000X1.700000*%
G04 #@! TD*
G04 APERTURE END LIST*
D10*
X132475000Y-75905000D03*
X132475000Y-78445000D03*
X132475000Y-80985000D03*
X132475000Y-83525000D03*
X132475000Y-86065000D03*
X132475000Y-88605000D03*
X132475000Y-91145000D03*
X132475000Y-93685000D03*
X132475000Y-96225000D03*
X132475000Y-98765000D03*
X132475000Y-101305000D03*
X132475000Y-103845000D03*
X132475000Y-106385000D03*
X132475000Y-108925000D03*
X132475000Y-111465000D03*
X132475000Y-114005000D03*
X132475000Y-116545000D03*
X132475000Y-119085000D03*
X132475000Y-121625000D03*
X132475000Y-124165000D03*
X132475000Y-126705000D03*
X132475000Y-129245000D03*
X132475000Y-131785000D03*
D11*
X132475000Y-134325000D03*
D10*
X167475000Y-134350000D03*
X167475000Y-131810000D03*
X167475000Y-129270000D03*
X167475000Y-126730000D03*
X167475000Y-124190000D03*
X167475000Y-121650000D03*
X167475000Y-119110000D03*
X167475000Y-116570000D03*
X167475000Y-114030000D03*
X167475000Y-111490000D03*
X167475000Y-108950000D03*
X167475000Y-106410000D03*
X167475000Y-103870000D03*
X167475000Y-101330000D03*
X167475000Y-98790000D03*
X167475000Y-96250000D03*
X167475000Y-93710000D03*
X167475000Y-91170000D03*
X167475000Y-88630000D03*
X167475000Y-86090000D03*
X167475000Y-83550000D03*
X167475000Y-81010000D03*
X167475000Y-78470000D03*
D11*
X167475000Y-75930000D03*
M02*
