M48
; DRILL file {KiCad 5.1.6} date Sun Jul 26 18:10:01 2020
; FORMAT={-:-/ absolute / inch / decimal}
; #@! TF.CreationDate,2020-07-26T18:10:01+03:00
; #@! TF.GenerationSoftware,Kicad,Pcbnew,5.1.6
; #@! TF.FileFunction,Plated,1,2,PTH
FMAT,2
INCH
T1C0.0394
%
G90
G05
T1
X5.2156Y-2.9884
X5.2156Y-3.0884
X5.2156Y-3.1884
X5.2156Y-3.2884
X5.2156Y-3.3884
X5.2156Y-3.4884
X5.2156Y-3.5884
X5.2156Y-3.6884
X5.2156Y-3.7884
X5.2156Y-3.8884
X5.2156Y-3.9884
X5.2156Y-4.0884
X5.2156Y-4.1884
X5.2156Y-4.2884
X5.2156Y-4.3884
X5.2156Y-4.4884
X5.2156Y-4.5884
X5.2156Y-4.6884
X5.2156Y-4.7884
X5.2156Y-4.8884
X5.2156Y-4.9884
X5.2156Y-5.0884
X5.2156Y-5.1884
X5.2156Y-5.2884
X6.5935Y-2.9894
X6.5935Y-3.0894
X6.5935Y-3.1894
X6.5935Y-3.2894
X6.5935Y-3.3894
X6.5935Y-3.4894
X6.5935Y-3.5894
X6.5935Y-3.6894
X6.5935Y-3.7894
X6.5935Y-3.8894
X6.5935Y-3.9894
X6.5935Y-4.0894
X6.5935Y-4.1894
X6.5935Y-4.2894
X6.5935Y-4.3894
X6.5935Y-4.4894
X6.5935Y-4.5894
X6.5935Y-4.6894
X6.5935Y-4.7894
X6.5935Y-4.8894
X6.5935Y-4.9894
X6.5935Y-5.0894
X6.5935Y-5.1894
X6.5935Y-5.2894
T0
M30
